<?xml version="1.0" standalone="no"?>
<svg xmlns="http://www.w3.org/2000/svg" width="436.4358217643276" height="250.67582176432765" viewBox="0 0 436.4358217643276 250.67582176432765"><path fill="#5e2ced" fill-rule="nonzero" d="M26.08 2.64L26.08 2.64Q26.20 3.32 26.26 3.58Q26.32 3.84 26.32 4.28L26.32 4.28Q26.32 5.60 25.74 6.74Q25.16 7.88 24.16 8.36L24.16 8.36Q23.36 7.28 22.20 6.50Q21.04 5.72 19.66 5.22Q18.28 4.72 16.80 4.48Q15.32 4.24 13.92 4.24L13.92 4.24Q12.52 4.24 11.30 4.46Q10.08 4.68 9.14 5.06Q8.20 5.44 7.66 6Q7.12 6.56 7.12 7.28L7.12 7.28Q7.24 8.16 8.20 9.06Q9.16 9.96 10.56 10.82Q11.96 11.68 13.66 12.52Q15.36 13.36 17 14.12L17 14.12Q19.04 15.08 20.52 15.90Q22 16.72 22.96 17.70Q23.92 18.68 24.40 19.92Q24.88 21.16 24.88 22.92L24.88 22.92Q24.88 24.96 24.20 26.74Q23.52 28.52 22.22 29.84Q20.92 31.16 19.08 31.90Q17.24 32.64 14.96 32.64L14.96 32.64Q12.72 32.64 10.12 31.96Q7.52 31.28 5.26 30.10Q3 28.92 1.50 27.38Q0 25.84 0 24.12L0 24.12Q0 23.32 0.46 22.08Q0.92 20.84 2.12 19.48L2.12 19.48Q2.24 20.68 3.42 22.32Q4.60 23.96 6.96 25.36L6.96 25.36Q9.16 26.64 11.50 27.22Q13.84 27.80 15.88 27.80L15.88 27.80Q18.12 27.80 19.52 27.24Q20.92 26.68 21.72 25.90Q22.52 25.12 22.84 24.32Q23.16 23.52 23.20 23.04L23.20 23.04Q23.16 22.24 22.46 21.50Q21.76 20.76 20.58 20.06Q19.40 19.36 17.84 18.64Q16.28 17.92 14.60 17.20L14.60 17.20Q12.08 16.08 10.26 15.10Q8.44 14.12 7.26 13.10Q6.08 12.08 5.54 10.96Q5.00 9.84 5.00 8.40L5.00 8.40Q5.00 6.16 6.36 4.16Q7.72 2.16 10.28 1.12L10.28 1.12Q11.56 0.56 13.02 0.32Q14.48 0.08 15.88 0.08L15.88 0.08Q18.52 0.08 21.04 0.80Q23.56 1.52 26.08 2.64ZM46.52 0.48L46.52 0.48Q47.28 0.80 48.08 1.30Q48.88 1.80 49.56 2.32Q50.24 2.84 50.70 3.34Q51.16 3.84 51.20 4.16L51.20 4.16Q50.52 4 49.84 3.94Q49.16 3.88 48.60 3.88L48.60 3.88Q46.80 3.88 45.02 4.76Q43.24 5.64 41.64 7.16Q40.04 8.68 38.68 10.72Q37.32 12.76 36.34 15.08Q35.36 17.40 34.80 19.88Q34.24 22.36 34.24 24.76L34.24 24.76Q34.24 27.88 35.28 29.40Q36.32 30.92 38.32 30.92L38.32 30.92Q39.28 30.92 40.40 30.54Q41.52 30.16 42.68 29.48Q43.84 28.80 44.96 27.84Q46.08 26.88 47.04 25.72L47.04 25.72Q48.44 24.04 49.56 21.90Q50.68 19.76 51.46 17.36Q52.24 14.96 52.66 12.42Q53.08 9.88 53.08 7.44L53.08 7.44Q53.08 6.48 53.04 5.82Q53 5.16 52.94 4.70Q52.88 4.24 52.84 3.96Q52.80 3.68 52.76 3.48L52.76 3.48Q53.24 3.72 53.82 4.06Q54.40 4.40 54.90 5.06Q55.40 5.72 55.74 6.80Q56.08 7.88 56.08 9.60L56.08 9.60Q56.08 12.40 55.42 15.10Q54.76 17.80 53.58 20.24Q52.40 22.68 50.80 24.80Q49.20 26.92 47.36 28.52L47.36 28.52Q44.96 30.64 42.24 31.80Q39.52 32.96 37 32.96L37 32.96Q33.32 32.96 31.38 30.62Q29.44 28.28 29.44 23.72L29.44 23.72Q29.44 21.28 29.98 18.56Q30.52 15.84 31.50 13.20Q32.48 10.56 33.84 8.18Q35.20 5.80 36.82 3.98Q38.44 2.16 40.30 1.08Q42.16 0 44.12 0L44.12 0Q44.76 0 45.32 0.10Q45.88 0.20 46.52 0.48Z" transform="translate(0 0) scale(3.045)"></path><path fill="#5e2ced" fill-rule="nonzero" d="M3.88 32.64L3.88 32.64Q1.60 31.96 0.80 31.34Q0 30.72 0 29.64L0 29.64Q0 28.44 0.56 26.26Q1.12 24.08 2.02 21.40Q2.92 18.72 4.08 15.80Q5.24 12.88 6.44 10.20Q7.64 7.52 8.78 5.30Q9.92 3.08 10.80 1.84L10.80 1.84L10.52 0.16Q11.08 0.16 12.08 0.44Q13.08 0.72 14.10 1.12Q15.12 1.52 15.90 1.94Q16.68 2.36 16.76 2.64L16.76 2.64Q16.56 3.60 16.44 5.54Q16.32 7.48 16.32 9.68L16.32 9.68Q16.32 14.04 16.66 18.22Q17 22.40 18.24 26.72L18.24 26.72Q18.88 23.52 19.62 20.34Q20.36 17.16 21.16 14.26Q21.96 11.36 22.76 8.88Q23.56 6.40 24.30 4.54Q25.04 2.68 25.68 1.62Q26.32 0.56 26.84 0.48L26.84 0.48Q27.28 0.56 27.80 0.82Q28.32 1.08 28.80 1.44Q29.28 1.80 29.68 2.24Q30.08 2.68 30.32 3.12L30.32 3.12Q29.04 3.64 27.78 5.56Q26.52 7.48 25.38 10.22Q24.24 12.96 23.26 16.16Q22.28 19.36 21.54 22.46Q20.80 25.56 20.38 28.20Q19.96 30.84 19.92 32.44L19.92 32.44Q19.92 32.52 19.96 32.56L19.96 32.56Q19.84 32.60 19.70 32.60Q19.56 32.60 19.44 32.60L19.44 32.60Q17.60 32.60 16.18 32.14Q14.76 31.68 14.32 30.84L14.32 30.84Q13.48 27.48 12.92 24.36Q12.36 21.24 11.98 18.12Q11.60 15.00 11.38 11.82Q11.16 8.64 11.04 5.16L11.04 5.16Q10.28 6.36 9.44 8.30Q8.60 10.24 7.80 12.56Q7 14.88 6.26 17.44Q5.52 20 4.96 22.44Q4.40 24.88 4.08 27.06Q3.76 29.24 3.76 30.84L3.76 30.84Q3.76 31.68 3.78 32.04Q3.80 32.40 3.88 32.64ZM46.08 0.48L46.08 0.48Q46.84 0.80 47.64 1.30Q48.44 1.80 49.12 2.32Q49.80 2.84 50.26 3.34Q50.72 3.84 50.76 4.16L50.76 4.16Q50.08 4 49.40 3.94Q48.72 3.88 48.16 3.88L48.16 3.88Q46.36 3.88 44.58 4.76Q42.80 5.64 41.20 7.16Q39.60 8.68 38.24 10.72Q36.88 12.76 35.90 15.08Q34.92 17.40 34.36 19.88Q33.80 22.36 33.80 24.76L33.80 24.76Q33.80 27.88 34.84 29.40Q35.88 30.92 37.88 30.92L37.88 30.92Q38.84 30.92 39.96 30.54Q41.08 30.16 42.24 29.48Q43.40 28.80 44.52 27.84Q45.64 26.88 46.60 25.72L46.60 25.72Q48 24.04 49.12 21.90Q50.24 19.76 51.02 17.36Q51.80 14.96 52.22 12.42Q52.64 9.88 52.64 7.44L52.64 7.44Q52.64 6.48 52.60 5.82Q52.56 5.16 52.50 4.70Q52.44 4.24 52.40 3.96Q52.36 3.68 52.32 3.48L52.32 3.48Q52.80 3.72 53.38 4.06Q53.96 4.40 54.46 5.06Q54.96 5.72 55.30 6.80Q55.64 7.88 55.64 9.60L55.64 9.60Q55.64 12.40 54.98 15.10Q54.32 17.80 53.14 20.24Q51.96 22.68 50.36 24.80Q48.76 26.92 46.92 28.52L46.92 28.52Q44.52 30.64 41.80 31.80Q39.08 32.96 36.56 32.96L36.56 32.96Q32.88 32.96 30.94 30.62Q29 28.28 29 23.72L29 23.72Q29 21.28 29.54 18.56Q30.08 15.84 31.06 13.20Q32.04 10.56 33.40 8.18Q34.76 5.80 36.38 3.98Q38 2.16 39.86 1.08Q41.72 0 43.68 0L43.68 0Q44.32 0 44.88 0.10Q45.44 0.20 46.08 0.48Z" transform="translate(0 108.362) scale(3.07)"></path><path fill="#5e2ced" fill-rule="nonzero" d="M26.08 2.72L26.08 2.72Q26.20 3.40 26.26 3.66Q26.32 3.92 26.32 4.36L26.32 4.36Q26.32 5.68 25.74 6.82Q25.16 7.96 24.16 8.44L24.16 8.44Q23.36 7.36 22.20 6.58Q21.04 5.80 19.66 5.30Q18.28 4.80 16.80 4.56Q15.32 4.32 13.92 4.32L13.92 4.32Q12.52 4.32 11.30 4.54Q10.08 4.76 9.14 5.14Q8.20 5.52 7.66 6.08Q7.12 6.64 7.12 7.36L7.12 7.36Q7.24 8.24 8.20 9.14Q9.16 10.04 10.56 10.90Q11.96 11.76 13.66 12.60Q15.36 13.44 17 14.20L17 14.20Q19.04 15.16 20.52 15.98Q22 16.80 22.96 17.78Q23.92 18.76 24.40 20Q24.88 21.24 24.88 23L24.88 23Q24.88 25.04 24.20 26.82Q23.52 28.60 22.22 29.92Q20.92 31.24 19.08 31.98Q17.24 32.72 14.96 32.72L14.96 32.72Q12.72 32.72 10.12 32.04Q7.52 31.36 5.26 30.18Q3 29 1.50 27.46Q0 25.92 0 24.20L0 24.20Q0 23.40 0.46 22.16Q0.92 20.92 2.12 19.56L2.12 19.56Q2.24 20.76 3.42 22.40Q4.60 24.04 6.96 25.44L6.96 25.44Q9.16 26.72 11.50 27.30Q13.84 27.88 15.88 27.88L15.88 27.88Q18.12 27.88 19.52 27.32Q20.92 26.76 21.72 25.98Q22.52 25.20 22.84 24.40Q23.16 23.60 23.20 23.12L23.20 23.12Q23.16 22.32 22.46 21.58Q21.76 20.84 20.58 20.14Q19.40 19.44 17.84 18.72Q16.28 18 14.60 17.28L14.60 17.28Q12.08 16.16 10.26 15.18Q8.44 14.20 7.26 13.18Q6.08 12.16 5.54 11.04Q5.00 9.92 5.00 8.48L5.00 8.48Q5.00 6.24 6.36 4.24Q7.72 2.24 10.28 1.20L10.28 1.20Q11.56 0.64 13.02 0.40Q14.48 0.16 15.88 0.16L15.88 0.16Q18.52 0.16 21.04 0.88Q23.56 1.60 26.08 2.72ZM55.32 8.12L55.32 8.12Q55.32 10.32 54.22 12.32Q53.12 14.32 51.26 15.82Q49.40 17.32 46.90 18.20Q44.40 19.08 41.60 19.08L41.60 19.08Q40.60 19.08 40.02 18.82Q39.44 18.56 38.72 17.80L38.72 17.80Q36.72 22.16 35.46 25.82Q34.20 29.48 33.48 32.92L33.48 32.92Q31.96 32.56 31.00 31.66Q30.04 30.76 29.24 29.40L29.24 29.40Q29.64 28.64 30.20 27.40Q30.76 26.16 31.56 24.34Q32.36 22.52 33.42 19.98Q34.48 17.44 35.92 14.04L35.92 14.04Q36.56 12.48 37.04 11.32Q37.52 10.16 37.88 9.14Q38.24 8.12 38.54 7.12Q38.84 6.12 39.16 4.92L39.16 4.92Q37.28 5.52 35.70 6.32Q34.12 7.12 33.08 8L33.08 8Q32.72 7.76 32.34 7.28Q31.96 6.80 31.64 6.22Q31.32 5.64 31.08 5.04Q30.84 4.44 30.80 3.96L30.80 3.96Q31.96 3.16 33.68 2.48Q35.40 1.80 37.36 1.30Q39.32 0.80 41.42 0.52Q43.52 0.24 45.44 0.24L45.44 0.24Q47.72 0.24 49.56 0.82Q51.40 1.40 52.68 2.44Q53.96 3.48 54.64 4.92Q55.32 6.36 55.32 8.12ZM48.20 3.32L48.20 3.32Q46.68 3.32 45.08 3.56L45.08 3.56L45.56 4.28Q45.16 4.80 44.56 5.84Q43.96 6.88 43.24 8.34Q42.52 9.80 41.66 11.60Q40.80 13.40 39.84 15.40L39.84 15.40Q42.96 15.40 45.52 14.82Q48.08 14.24 49.90 13.22Q51.72 12.20 52.74 10.84Q53.76 9.48 53.76 7.92L53.76 7.92Q53.76 5.84 52.36 4.58Q50.96 3.32 48.20 3.32ZM80.96 7.64L80.96 7.64Q80.96 9.56 80.10 11.26Q79.24 12.96 77.72 14.30Q76.20 15.64 74.16 16.56Q72.12 17.48 69.72 17.80L69.72 17.80Q70.32 19.60 71.18 21.50Q72.04 23.40 73.04 25.16Q74.04 26.92 75.12 28.40Q76.20 29.88 77.24 30.84L77.24 30.84Q77.04 31.24 76.66 31.64Q76.28 32.04 75.78 32.38Q75.28 32.72 74.74 32.94Q74.20 33.16 73.72 33.16L73.72 33.16Q72.84 33.16 72.04 32.32Q71.24 31.48 70.42 29.66Q69.60 27.84 68.70 24.94Q67.80 22.04 66.72 17.96L66.72 17.96Q66.28 17.96 65.84 17.96Q65.40 17.96 65.16 17.88L65.16 17.88Q64.88 17.72 64.56 17.32L64.56 17.32Q63.48 19.64 62.64 21.68Q61.80 23.72 61.14 25.62Q60.48 27.52 59.98 29.30Q59.48 31.08 59.12 32.92L59.12 32.92Q57.76 32.60 56.76 31.76Q55.76 30.92 54.88 29.40L54.88 29.40Q55.04 29.04 55.22 28.70Q55.40 28.36 55.68 27.74Q55.96 27.12 56.38 26.16Q56.80 25.20 57.50 23.60Q58.20 22 59.18 19.68Q60.16 17.36 61.56 14.04L61.56 14.04Q62.20 12.56 62.66 11.44Q63.12 10.32 63.48 9.30Q63.84 8.28 64.14 7.26Q64.44 6.24 64.76 4.92L64.76 4.92Q62.92 5.56 61.34 6.34Q59.76 7.12 58.72 8L58.72 8Q58.36 7.76 57.98 7.28Q57.60 6.80 57.28 6.22Q56.96 5.64 56.72 5.04Q56.48 4.44 56.44 3.96L56.44 3.96Q57.64 3.16 59.38 2.48Q61.12 1.80 63.08 1.30Q65.04 0.80 67.08 0.52Q69.12 0.24 70.88 0.24L70.88 0.24Q75.68 0.24 78.32 2.22Q80.96 4.20 80.96 7.64ZM70.72 3.52L71.20 4.28Q70.92 4.64 70.32 5.72Q69.72 6.80 68.94 8.30Q68.16 9.80 67.30 11.56Q66.44 13.32 65.64 15.04L65.64 15.04Q68.64 15.04 71.16 14.48Q73.68 13.92 75.52 12.90Q77.36 11.88 78.38 10.50Q79.40 9.12 79.40 7.44L79.40 7.44Q79.40 5.44 77.96 4.38Q76.52 3.32 73.52 3.32L73.52 3.32Q72.84 3.32 72.16 3.38Q71.48 3.44 70.72 3.52L70.72 3.52ZM97.60 12.64L97.60 12.64Q98.92 12.64 99.66 13.36Q100.40 14.08 100.40 15.36L100.40 15.36Q100.40 15.68 100.34 16.02Q100.28 16.36 100.20 16.60L100.20 16.60Q99.68 16.52 99.04 16.46Q98.40 16.40 97.52 16.40L97.52 16.40Q95.80 16.40 94.04 16.70Q92.28 17 90.68 17.20L90.68 17.20Q89.76 19.32 89 21.30Q88.24 23.28 87.70 24.92Q87.16 26.56 86.86 27.76Q86.56 28.96 86.52 29.56L86.52 29.56Q89.76 28.88 93.06 28.40Q96.36 27.92 100 27.68L100 27.68Q100.44 28.36 100.74 29.16Q101.04 29.96 101.04 30.88L101.04 30.88Q101.04 31.12 101.04 31.40Q101.04 31.68 100.96 31.96L100.96 31.96Q99.84 31.92 98.60 31.90Q97.36 31.88 95.36 31.88L95.36 31.88Q94.04 31.88 92.86 31.94Q91.68 32 90.48 32.12Q89.28 32.24 87.94 32.44Q86.60 32.64 84.92 32.92L84.92 32.92Q83.08 32.20 81.36 29.40L81.36 29.40Q82.04 27.96 83.26 25.02Q84.48 22.08 86.36 17.16L86.36 17.16Q84.56 16.60 84 15.16L84 15.16Q84.20 14.96 85.16 14.66Q86.12 14.36 87.52 14.04L87.52 14.04Q88.12 12.48 88.54 11.32Q88.96 10.16 89.28 9.14Q89.60 8.12 89.86 7.14Q90.12 6.16 90.36 5L90.36 5Q88.96 4.92 88.16 4.22Q87.36 3.52 87.36 2.40L87.36 2.40Q87.36 2.08 87.46 1.64Q87.56 1.20 87.68 0.88L87.68 0.88Q88.48 1 89.22 1.04Q89.96 1.08 91.16 1.08L91.16 1.08Q93.68 1.08 95.88 0.94Q98.08 0.80 99.86 0.64Q101.64 0.48 102.92 0.34Q104.20 0.20 104.88 0.20L104.88 0.20Q105.80 0.20 106.52 1.16Q107.24 2.12 107.60 3.88L107.60 3.88Q106.36 3.76 105.58 3.72Q104.80 3.68 104.20 3.68L104.20 3.68Q102 3.68 100.18 3.90Q98.36 4.12 96.68 4.36L96.68 4.36Q96.44 4.72 96.14 5.28Q95.84 5.84 95.36 6.84Q94.88 7.84 94.18 9.36Q93.48 10.88 92.48 13.16L92.48 13.16Q94 12.92 95.34 12.78Q96.68 12.64 97.60 12.64ZM106.68 21.84L106.68 21.84Q106.68 19.04 107.34 16.34Q108 13.64 109.20 11.22Q110.40 8.80 112.06 6.78Q113.72 4.76 115.70 3.28Q117.68 1.80 119.92 0.98Q122.16 0.16 124.52 0.16L124.52 0.16Q127.28 0.16 128.82 1.32Q130.36 2.48 130.36 4.56L130.36 4.56Q130.36 5.36 130.14 6.20Q129.92 7.04 129.50 7.86Q129.08 8.68 128.52 9.44Q127.96 10.20 127.28 10.76L127.28 10.76Q126.24 10.60 125.48 9.82Q124.72 9.04 124.52 8L124.52 8Q125.92 6.84 126.74 5.58Q127.56 4.32 127.56 3.28L127.56 3.28Q127.56 1.52 125.36 1.52L125.36 1.52Q124.44 1.52 123.46 1.90Q122.48 2.28 121.48 2.96Q120.48 3.64 119.54 4.60Q118.60 5.56 117.80 6.72L117.80 6.72Q112.24 14.72 112.24 23.08L112.24 23.08Q112.24 26.04 113.16 27.84Q114.08 29.64 115.60 29.96L115.60 29.96Q117.32 29.56 119.96 27.76Q122.60 25.96 125.72 23.08L125.72 23.08Q126.12 23.48 126.20 23.92L126.20 23.92Q125.04 25.44 123.80 26.84Q122.56 28.24 121.34 29.40Q120.12 30.56 118.94 31.44Q117.76 32.32 116.76 32.80L116.76 32.80Q111.80 32.72 109.24 29.96Q106.68 27.20 106.68 21.84ZM144.80 27.36L144.80 27.36Q144.80 25.68 145.36 23.04Q145.92 20.40 146.84 17.40L146.84 17.40Q144.20 17.60 141.54 17.92Q138.88 18.24 136.92 18.28L136.92 18.28Q135.12 22.48 134.06 26.02Q133 29.56 132.40 32.92L132.40 32.92Q130.88 32.56 129.88 31.66Q128.88 30.76 128.04 29.40L128.04 29.40Q128.36 28.76 128.78 27.76Q129.20 26.76 129.78 25.34Q130.36 23.92 131.10 22.02Q131.84 20.12 132.80 17.60L132.80 17.60Q131.48 17.04 131.04 16.04L131.04 16.04Q131.24 15.88 131.94 15.70Q132.64 15.52 133.68 15.32L133.68 15.32L134.20 14.04Q135.04 11.88 135.58 10.40Q136.12 8.92 136.50 7.50Q136.88 6.08 137.22 4.36Q137.56 2.64 138.04 0L138.04 0Q139.72 0.32 141.10 1.48Q142.48 2.64 143.48 4.28L143.48 4.28Q143.12 4.76 142.60 5.72Q142.08 6.68 141.46 8.02Q140.84 9.36 140.12 11.02Q139.40 12.68 138.56 14.52L138.56 14.52Q141.04 14.20 143.58 13.92Q146.12 13.64 148.08 13.52L148.08 13.52Q148.80 11.44 149.58 9.46Q150.36 7.48 151.12 5.84Q151.88 4.20 152.58 2.96Q153.28 1.72 153.84 1.12L153.84 1.12Q154.24 1.16 154.90 1.42Q155.56 1.68 156.24 2.04Q156.92 2.40 157.48 2.82Q158.04 3.24 158.24 3.60L158.24 3.60Q157.52 4.28 156.80 5.36Q156.08 6.44 155.38 7.84Q154.68 9.24 154 10.88Q153.32 12.52 152.72 14.28L152.72 14.28Q153.52 15 153.52 16.08L153.52 16.08Q153.52 16.84 153.20 17.48L153.20 17.48Q152.84 17.40 152.48 17.38Q152.12 17.36 151.72 17.32L151.72 17.32Q151.04 19.48 150.48 21.60Q149.92 23.72 149.54 25.64Q149.16 27.56 148.94 29.16Q148.72 30.76 148.72 31.84L148.72 31.84Q148.72 32.24 148.74 32.48Q148.76 32.72 148.80 32.88L148.80 32.88Q147.92 32.84 147.52 32.58Q147.12 32.32 146.92 32.02Q146.72 31.72 146.56 31.42Q146.40 31.12 146.04 30.96L146.04 30.96Q145.76 30.84 145.52 30.40Q145.28 29.96 145.12 29.40Q144.96 28.84 144.88 28.28Q144.80 27.72 144.80 27.36ZM157.40 27.40L157.40 27.40Q157.40 25.96 157.86 23.66Q158.32 21.36 159.06 18.70Q159.80 16.04 160.76 13.26Q161.72 10.48 162.72 8.04Q163.72 5.60 164.68 3.76Q165.64 1.92 166.40 1.12L166.40 1.12Q166.80 1.16 167.46 1.42Q168.12 1.68 168.80 2.04Q169.48 2.40 170.04 2.82Q170.60 3.24 170.76 3.60L170.76 3.60Q169.60 4.64 168.46 6.74Q167.32 8.84 166.26 11.52Q165.20 14.20 164.28 17.18Q163.36 20.16 162.68 22.96Q162 25.76 161.62 28.16Q161.24 30.56 161.24 32.04L161.24 32.04Q161.24 32.72 161.36 32.88L161.36 32.88Q160.48 32.84 160.08 32.58Q159.68 32.32 159.46 32.02Q159.24 31.72 159.06 31.42Q158.88 31.12 158.52 30.96L158.52 30.96Q158.24 30.84 158.04 30.40Q157.84 29.96 157.70 29.42Q157.56 28.88 157.48 28.32Q157.40 27.76 157.40 27.40Z" transform="translate(0 217.516) scale(1)"></path><g fill="#ed5e2c" color="#ed5e2c" transform="translate(185.76 0.001) scale(5.222413)"><svg width="48.0" height="48.0" x="0.0" y="0.0" viewBox="0 0 48 48"><path fill="currentColor" fill-rule="evenodd" d="M21.088 35.003c-.108 0-.27 0-.432-.054-1.294-.27-1.294-1.403-1.348-2.212-.054-.862-.108-1.186-.54-1.887-.215-.324.054-.647.378-.647.054 0 .108 0 .216.054 1.402.7 3.344 1.887 3.29 3.182 0 .054-.216 1.564-1.564 1.564m-2.643-14.994c-.054.162-.162.27-.378.378a1.787 1.787 0 0 1-1.294 0c-.593-.27-1.133-.701-1.564-1.079-.701-.593-1.348-1.132-2.157-.97-.54.053-.971.377-1.349.97-.161.27-.27.594-.161.917.215.755 1.024 1.187 2.319 1.888 2.21 1.186 4.045 2.265 4.045 3.883v.431c0 .108-.054.162-.054.27 0 .054-.054.108-.054.162 0 .054-.054.108-.054.162-.054.107-.108.161-.216.27l-.162.161c-.431.324-1.024.485-1.564.485-.755 0-1.726-.323-1.887-1.294-.27-1.402-2.535-3.074-4.53-3.236-.972-.108-1.834.162-2.428.755l-.215.27c-.054.054-.108.162-.162.216-.054.107-.108.161-.162.27 0 .053-.054.053-.054.107-.054.054-.054.108-.108.216-.054 0-.054.054-.054.108-.054.054-.054.162-.054.215-.27 1.187 1.24 2.104 3.236 3.344 3.29 1.996 5.879 3.83 4.908 6.095-.216.485-.647.97-1.186 1.294a3.536 3.536 0 0 1-1.78.485c-1.24 0-2.265-.755-2.859-2.103-.593-1.348-1.294-2.05-2.103-2.05-.593 0-1.133.324-1.51.971-.162.378-.324.81-.324 1.295-1.833-3.236-2.912-7.011-2.912-10.949C1.618 11.596 11.649 1.564 24 1.564c1.672 0 3.344.162 4.962.54.593.162.809.54.917.863.161.539 0 1.186-.432 1.564-.377.377-.97.431-1.672.215-1.456-.431-2.912-.215-3.775.648-.593.593-.809 1.402-.54 2.157.216.647.918 1.726 3.29 2.157 1.834.324 3.183.216 4.854.108a54.109 54.109 0 0 1 3.29-.108c3.128 0 4.854 1.564 5.394 2.859.377.917.27 1.78-.324 2.373-1.186 1.186-4.207-.216-5.609-1.025-.162-.108-.27-.162-.431-.27-.378-.215-.863-.108-1.08.27-.215.378-.107.863.217 1.079.054.054.215.161.431.27 1.834 1.186 2.859 2.804 2.859 4.476 0 1.402-.755 2.642-2.05 3.451-1.025.594-1.941.648-2.643.054-.7-.593-.97-1.672-.593-2.696.378-1.133.216-2.212-.485-3.02-1.133-1.295-3.506-1.78-6.04-1.295-.162.054-.324.054-.432.108-.917.27-2.697.97-4.045 2.157-.485-1.618-2.157-2.642-3.506-3.397-.809-.486-1.887-1.133-1.887-1.51 0-.486.593-1.241 1.24-1.403.593-.162 1.133.216 1.618 1.025.755 1.348 2.157 2.265 3.398 2.157 1.025-.054 1.887-.647 2.373-1.726.377-.809.377-1.833.054-2.696-.27-.701-.917-1.618-2.427-2.212a.797.797 0 0 0-1.025.432.797.797 0 0 0 .432 1.025c.809.323 1.294.755 1.51 1.294.215.54.108 1.079 0 1.402-.216.54-.54.81-.971.81-.647.053-1.51-.54-1.942-1.349-1.186-2.103-2.804-1.942-3.397-1.78-1.349.324-2.481 1.672-2.481 2.966 0 1.295 1.294 2.05 2.642 2.859 1.996 1.186 3.236 2.05 2.75 3.613M23.947 0c1.834 0 3.614.216 5.34.594 1.078.215 1.833.97 2.103 1.995.27 1.079-.054 2.32-.863 3.128-.486.432-1.564 1.133-3.29.594-1.079-.324-1.834-.054-2.157.27-.108.107-.216.323-.162.539.108.377.701.862 2.05 1.078 1.671.27 2.912.216 4.476.108.97-.054 2.05-.108 3.397-.108 3.938 0 6.149 2.05 6.904 3.83.647 1.51.377 3.074-.647 4.098-1.025 1.025-2.481 1.079-3.884.755.54.917.81 1.888.81 2.913 0 1.995-1.025 3.775-2.859 4.854-1.564.97-3.236.97-4.476-.054-1.24-1.025-1.672-2.859-1.079-4.477.216-.593.108-1.078-.216-1.456-.72-.824-2.424-1.107-4.22-.802l-.256.047h-.054c-.054.054-.162.054-.216.108-1.186.54-2.48 3.236-2.373 6.256 0 1.672.432 5.77 4.369 7.227 1.78.701 3.505 1.025 5.123 1.025 2.75 0 5.07-.971 7.12-2.427 1.132-.755 2.21-1.726 3.235-2.697 2.178-2.333 3.708-4.966 4.014-6.891l.031-.228v-.054c0-.054.054-.108.054-.162 0 0 .03-.03.046-.068l.008-.04.108-.107.023-.023.085-.085s.054-.054.108-.054c.036 0 .072-.024.108-.04l.054-.014h.323c.054 0 .108.054.162.054 0 0 .03.03.068.045l.04.009.216.215s.053.054.053.108c0 .036.024.072.04.108l.014.054v.054c.216 1.348.324 2.157.324 3.667 0 12.868-10.202 23.41-23.07 23.881l-.39.012h-1.834c-1.618-.054-3.236-.27-4.746-.702-.122 0-.243-.03-.364-.068l-.122-.04h-.054c-.054 0-.108-.053-.162-.053C7.281 44.063 0 34.84 0 23.946 0 10.733 10.787-.054 23.946 0zm16.611 18.23c.378 0 .701.108 1.079.323 1.618 1.079 2.373 2.265 2.157 3.506 0 .108-.054.162-.054.216-.323.917-1.132 1.833-2.373 1.833-.27 0-.593-.054-.863-.161a2.387 2.387 0 0 1-1.51-1.618 3.42 3.42 0 0 1-.073-1.096l.02-.145v-.216c-.055 0-.055 0-.055-.054-.27-.539-.215-1.186.108-1.725.378-.54.917-.863 1.564-.863zm0 1.672c-.161 0-.27.161-.215.323.215.378.215.54.16 1.025-.053.431-.106 1.025.54 1.24a.687.687 0 0 0 .324.054c.594 0 .81-.7.81-.647.107-.701-.864-1.456-1.51-1.941 0-.054-.055-.054-.109-.054zM35.542 2.319c.754.108 3.073.378 3.667 2.104 0 .054.054.162.054.215.054.216.161 1.133-.432 1.942-.377.54-1.025.863-1.726.97h-.323c-.7 0-1.348-.269-1.834-.808-.323-.324-.485-.701-.593-.97v-.055c0-.054-.054-.108-.054-.108l-.054-.054c-.593-.431-.862-1.24-.647-1.995.216-.755.917-1.24 1.726-1.24zm-.162 1.564c-.216 0-.324.27-.216.378.378.27.485.431.648.809.161.377.376.863.97.863h.162c.868-.097.83-.84.812-.996l-.003-.029c-.216-.647-1.51-.917-2.373-1.025z"></path></svg></g></svg>